<?xml version="1.0" encoding="UTF-8"?>
<!DOCTYPE svg PUBLIC "-//W3C//DTD SVG 1.1//EN" "http://www.w3.org/Graphics/SVG/1.1/DTD/svg11.dtd">
<!-- Creator: CorelDRAW 2020 (64-Bit) -->
<svg xmlns="http://www.w3.org/2000/svg" xml:space="preserve" width="10in" height="10in" version="1.1" style="shape-rendering:geometricPrecision; text-rendering:geometricPrecision; image-rendering:optimizeQuality; fill-rule:evenodd; clip-rule:evenodd"
viewBox="0 0 9999.99 9999.99"
 xmlns:xlink="http://www.w3.org/1999/xlink"
 xmlns:xodm="http://www.corel.com/coreldraw/odm/2003">
 <defs>
  <style type="text/css">
   <![CDATA[
    .str1 {stroke:#373435;stroke-width:166.67;stroke-miterlimit:2.61313}
    .str0 {stroke:#373435;stroke-width:222.22;stroke-miterlimit:2.61313}
    .str2 {stroke:#373435;stroke-width:138.89;stroke-miterlimit:2.61313}
    .fil4 {fill:none}
    .fil1 {fill:#89BEB3}
    .fil2 {fill:#A6A6A4}
    .fil0 {fill:#E8E8E8}
    .fil3 {fill:#373435;fill-rule:nonzero}
   ]]>
  </style>
 </defs>
 <g id="Layer_x0020_1">
  <metadata id="CorelCorpID_0Corel-Layer"/>
  <polygon class="fil0" points="-0,0 9999.99,0 9999.99,9999.99 -0,9999.99 "/>
  <g id="_1936871134800">
   <polygon class="fil1 str0" points="2287.74,4276.78 7712.25,4276.78 7712.25,9472.89 2287.74,9472.89 "/>
   <polygon class="fil2 str1" points="4133.98,527.1 5885.05,527.1 5885.05,3896.01 4133.98,3896.01 "/>
   <path class="fil3" d="M3447.66 6845.93l232.18 0c162.74,0 274.27,-94.7 274.27,-245.51 0,-150.81 -111.53,-245.51 -274.27,-245.51l-232.18 0 0 491.02zm138.89 -110.83l0 -269.36 87.68 0c83.48,0 139.59,49.8 139.59,134.68 0,84.88 -56.11,134.68 -139.59,134.68l-87.68 0zm688.13 120.65c157.13,0 272.87,-108.02 272.87,-255.33 0,-147.31 -115.74,-255.33 -272.87,-255.33 -157.13,0 -272.87,108.02 -272.87,255.33 0,147.31 115.74,255.33 272.87,255.33zm0 -115.04c-74.35,0 -132.57,-55.41 -132.57,-140.29 0,-84.88 58.22,-140.29 132.57,-140.29 74.35,0 132.58,55.41 132.58,140.29 0,84.88 -58.22,140.29 -132.58,140.29zm676.91 -385.8l0 261.65 -216.75 -261.65 -114.34 0 0 491.02 136.08 0 0 -261.65 216.75 261.65 114.34 0 0 -491.02 -136.08 0zm601.85 491.02l144.5 0 -217.45 -491.02 -136.79 0 -216.75 491.02 141.69 0 38.58 -95.4 207.63 0 38.58 95.4zm-205.53 -197.81l63.13 -157.13 63.13 157.13 -126.26 0zm469.28 197.81l138.89 0 0 -380.89 150.11 0 0 -110.13 -439.81 0 0 110.13 150.81 0 0 380.89zm478.4 -107.32l0 -89.79 218.16 0 0 -103.81 -218.16 0 0 -82.78 247.62 0 0 -107.32 -385.1 0 0 491.02 394.22 0 0 -107.32 -256.74 0z"/>
   <path class="fil3" d="M4038.41 7458.25l0 223.59 189.98 0 0 799.38 289.35 0 0 -1022.97 -479.33 0zm1923.18 713.64c0,-377.04 -580.17,-259.88 -580.17,-416.5 0,-51.63 43.84,-92.56 165.14,-92.56 89.14,0 185.59,26.31 283.51,79.16l89.15 -215.07c-81.84,-48.23 -188.52,-77.46 -296.66,-86.22l0 -157.83 -175.37 0 0 160.75c-236.74,29.47 -352.2,165.38 -352.2,326.37 0,379.96 581.63,261.83 581.63,423.56 0,49.69 -46.76,83.06 -166.6,83.06 -118.37,0 -246.98,-40.67 -337.58,-100.35l-94.99 212.87c84.76,58.46 223.59,100.83 369.73,111.06l0 156.37 175.37 0 0 -162.21c227.98,-33.61 339.04,-167.81 339.04,-322.48z"/>
   <path class="fil0 str2" d="M4717.54 1098.1l583.95 0c0,127.29 104.15,231.44 231.45,231.44l0 1764.02c-127.3,0 -231.45,104.15 -231.45,231.44l-583.95 0c0,-127.29 -104.15,-231.44 -231.44,-231.44l0 -1764.02c127.3,0 231.44,-104.15 231.44,-231.44z"/>
   <line class="fil4 str0" x1="2287.74" y1="5514.51" x2="5625.21" y2= "5514.51" />
   <line class="fil4 str0" x1="6156.47" y1="5514.51" x2="7656.47" y2= "5514.51" />
  </g>
 </g>
</svg>
